<?xml version="1.0" standalone="no"?>
<!DOCTYPE svg PUBLIC "-//W3C//DTD SVG 20010904//EN"
 "http://www.w3.org/TR/2001/REC-SVG-20010904/DTD/svg10.dtd">
<svg version="1.0" xmlns="http://www.w3.org/2000/svg"
 width="700.000000pt" height="700.000000pt" viewBox="0 0 700.000000 700.000000"
 preserveAspectRatio="xMidYMid meet">
<metadata>
Created by potrace 1.11, written by Peter Selinger 2001-2013
</metadata>
<g transform="translate(0.000000,700.000000) scale(0.100000,-0.100000)"
fill="#000000" stroke="none">
<path d="M3345 6409 c-259 -12 -497 -57 -760 -144 -746 -245 -1353 -774 -1700
-1480 -203 -413 -296 -817 -296 -1285 0 -468 93 -872 296 -1285 438 -891 1289
-1492 2281 -1610 169 -20 499 -20 668 0 515 61 1003 255 1409 560 571 427 972
1058 1112 1749 40 197 56 363 56 586 0 468 -93 872 -296 1285 -287 582 -747
1043 -1330 1329 -453 223 -919 318 -1440 295z m1181 -818 c229 -114 402 -235
582 -406 404 -384 652 -887 712 -1443 15 -138 7 -489 -14 -607 -73 -414 -239
-784 -488 -1090 -35 -42 -70 -86 -79 -98 -16 -19 -17 -17 -53 57 -42 86 -129
187 -206 236 -27 18 -82 44 -122 58 -67 25 -89 27 -278 32 l-205 5 -5 480 c-5
474 -5 480 -28 522 -30 58 -86 111 -141 137 -46 21 -52 21 -958 24 l-913 3 0
288 0 289 323 4 c307 3 324 4 370 25 62 29 93 54 130 104 50 68 57 122 57 451
l0 297 348 3 c328 3 351 5 414 26 89 30 207 110 264 180 95 116 134 231 134
391 0 56 4 101 8 101 5 0 71 -31 148 -69z m-1895 -3173 c4 -185 8 -221 27
-272 78 -211 254 -357 472 -388 l80 -12 0 -278 c0 -258 -1 -278 -17 -278 -37
0 -189 31 -296 59 -606 162 -1126 567 -1435 1116 -140 249 -239 552 -278 848
-22 169 -15 494 15 662 12 66 24 127 27 135 3 9 236 -217 702 -683 l697 -697
6 -212z"/>
</g>
</svg>
