<svg fill="#4D4D4D" xmlns="http://www.w3.org/2000/svg" xmlns:xlink="http://www.w3.org/1999/xlink" version="1.1" x="0px" y="0px" viewBox="0 0 98 98" enable-background="new 0 0 98 98" xml:space="preserve"><g><path d="M29.0581,5.8526c-0.353-0.5947-0.7433-1.1745-1.1615-1.7226l-1.5615,1.1913c0.3721,0.4877,0.7194,1.0033,1.033,1.5327   L29.0581,5.8526z"></path><path d="M28.214,8.4956c0.2503,0.5654,0.4671,1.1471,0.6455,1.7289l1.878-0.5755c-0.2005-0.6561-0.446-1.3116-0.728-1.9485   L28.214,8.4956z"></path><path d="M26.5422,2.5546c-0.4777-0.4944-0.9908-0.9678-1.5279-1.408l-1.245,1.5193c0.4777,0.3918,0.9352,0.8134,1.3591,1.2526   L26.5422,2.5546z"></path><path d="M13.1691,34.8888l0.658,0.5598l0.6384-0.5794c0.4911-0.4419,12.1395-11.0887,12.1395-20.0165   c0-7.0618-5.7456-12.8074-12.7976-12.8074C6.7458,2.0452,1,7.7908,1,14.8526C1,24.4287,12.6682,34.4664,13.1691,34.8888z    M13.8074,9.1365c2.3278,0,4.2332,1.9053,4.2332,4.2331c0,2.3376-1.9053,4.2331-4.2332,4.2331   c-2.3374,0-4.2331-1.8955-4.2331-4.2331C9.5744,11.0418,11.47,9.1365,13.8074,9.1365z"></path><path d="M20.3155,60.0189c-0.6311,0.2772-1.2536,0.5947-1.8502,0.9438l0.9937,1.6948c0.5304-0.3108,1.0838-0.5932,1.6449-0.8392   L20.3155,60.0189z"></path><path d="M24.2892,58.8146c-0.6791,0.1204-1.3601,0.2834-2.0228,0.4844l0.5697,1.8799c0.5889-0.1784,1.1932-0.3232,1.7965-0.4307   L24.2892,58.8146z"></path><path d="M16.5134,64.8827c0.446-0.4263,0.9189-0.8301,1.408-1.1989l-1.1855-1.5672c-0.5486,0.4148-1.08,0.8685-1.5807,1.3476   L16.5134,64.8827z"></path><path d="M12.5128,66.6619l1.6497,1.0656c0.3319-0.5141,0.6992-1.0157,1.0925-1.491l-1.5154-1.2507   C13.2993,65.52,12.886,66.0835,12.5128,66.6619z"></path><path d="M27.4007,63.4501c-7.0618,0-12.8074,5.7456-12.8074,12.8074c0,9.5761,11.6681,19.6138,12.169,20.0362l0.6581,0.5598   l0.6383-0.5795c0.4911-0.4518,12.1396-11.0886,12.1396-20.0165C40.1983,69.1957,34.4525,63.4501,27.4007,63.4501z M27.4007,79.0076   c-2.3377,0-4.2332-1.8956-4.2332-4.2331c0-2.3376,1.8955-4.2331,4.2332-4.2331c2.3276,0,4.2331,1.8955,4.2331,4.2331   C31.6337,77.112,29.7283,79.0076,27.4007,79.0076z"></path><path d="M73.6074,3.6864c0.4115,0.459,0.799,0.9457,1.1519,1.4469l1.6056-1.1327c-0.3971-0.5625-0.8325-1.1093-1.2939-1.6243   L73.6074,3.6864z"></path><path d="M75.7348,6.7024c0.2935,0.5414,0.5563,1.1035,0.7817,1.6718l1.8262-0.7242c-0.2542-0.6407-0.5506-1.2747-0.8815-1.8838   L75.7348,6.7024z"></path><path d="M78.9969,9.6216l-1.8972,0.5074c0.1563,0.5865,0.282,1.1956,0.3712,1.8099l1.9432-0.282   C79.3143,10.9663,79.1733,10.282,78.9969,9.6216z"></path><path d="M61.8844,1.3871c-7.0618,0-12.8074,5.7359-12.8074,12.7976c0,9.5761,11.6681,19.6236,12.169,20.046l0.658,0.5598   l0.6385-0.5794c0.4911-0.4518,12.1394-11.0984,12.1394-20.0263C74.6819,7.123,68.9364,1.3871,61.8844,1.3871z M61.8844,16.9447   c-2.3376,0-4.2331-1.9053-4.2331-4.2332c0-2.3374,1.8955-4.2331,4.2331-4.2331c2.3277,0,4.2331,1.8956,4.2331,4.2331   C66.1175,15.0393,64.2121,16.9447,61.8844,16.9447z"></path><path d="M92.1256,72.2618l1.5692,1.1826c0.3952-0.5247,0.7875-1.0675,1.173-1.6253l-1.6152-1.1174   C92.8824,71.2375,92.5055,71.7583,92.1256,72.2618z"></path><path d="M94.3086,69.1l1.667,1.0407C96.3296,69.5738,96.672,68.995,97,68.407l-1.7169-0.9553   C94.9724,68.0109,94.6453,68.561,94.3086,69.1z"></path><path d="M89.6971,75.263l1.4828,1.2872c0.4201-0.4834,0.8498-0.9946,1.2843-1.5308l-1.527-1.2363   C90.5181,74.301,90.1018,74.7959,89.6971,75.263z"></path><path d="M82.4902,44.9756c-7.0618,0-12.7976,5.7455-12.7976,12.8073c0,9.5761,11.6681,19.6138,12.1592,20.0362l0.6581,0.5598   l0.6384-0.5795c0.5009-0.4419,12.1394-11.0887,12.1394-20.0165C95.2877,50.7211,89.552,44.9756,82.4902,44.9756z M82.4902,60.5331   c-2.3376,0-4.2331-1.8956-4.2331-4.2331c0-2.3278,1.8955-4.2332,4.2331-4.2332s4.2331,1.9053,4.2331,4.2332   C86.7233,58.6374,84.8277,60.5331,82.4902,60.5331z"></path><path d="M41.6617,49.5033c0,7.5431,9.1439,15.4102,9.5269,15.7441l0.658,0.5501l0.6385-0.5697   c0.3928-0.3534,9.5073-8.692,9.5073-15.7244c0-5.6081-4.5573-10.1652-10.1655-10.1652   C46.2188,39.338,41.6617,43.8952,41.6617,49.5033z M51.827,45.2899c1.6894,0,3.0743,1.3751,3.0743,3.0643   c0,1.6991-1.3849,3.0742-3.0743,3.0742c-1.6893,0-3.0741-1.3751-3.0741-3.0742C48.7529,46.6649,50.1377,45.2899,51.827,45.2899z"></path><path d="M31.8401,62.1733c0.7071,0.216,1.3848,0.4911,2.033,0.8152c-0.0197-0.3437-0.049-0.6778-0.0785-1.0018l-1.9545,0.1768   V62.1733z"></path><path d="M16.7244,36.8728c0.4911,0.3142,1.0215,0.6776,1.5716,1.0802l1.1589-1.591c-0.5893-0.4224-1.1491-0.8054-1.6696-1.1393   L16.7244,36.8728z"></path><path d="M19.8086,39.1219c0.4714,0.3929,0.9527,0.8053,1.4438,1.2572l1.3259-1.4536c-0.5107-0.4715-1.0214-0.9135-1.5223-1.3259   L19.8086,39.1219z"></path><path d="M30.3767,54.6793c0.1767,0.5992,0.3534,1.208,0.5107,1.8368l1.9053-0.4813c-0.167-0.6679-0.3537-1.3162-0.5501-1.9447   L30.3767,54.6793z"></path><path d="M22.6273,41.705c0.4322,0.4419,0.8546,0.9133,1.2867,1.4044l1.4831-1.2866c-0.4518-0.5205-0.9133-1.0214-1.3652-1.483   L22.6273,41.705z"></path><path d="M29.7479,52.882l1.8368-0.6973c-0.2357-0.6483-0.5009-1.267-0.7661-1.8661l-1.7974,0.7956   C29.2765,51.6838,29.5221,52.273,29.7479,52.882z"></path><path d="M28.1962,49.3954l1.7384-0.9036c-0.3142-0.6089-0.6384-1.1983-0.9822-1.7678l-1.6796,1.0115   C27.5872,48.2756,27.9016,48.8256,28.1962,49.3954z"></path><path d="M26.2417,46.1345l1.6206-1.1098c-0.3831-0.5696-0.7759-1.1098-1.1785-1.6403l-1.5617,1.208   C25.505,45.0835,25.8783,45.5943,26.2417,46.1345z"></path><path d="M31.624,60.258l1.9447-0.2749c-0.0983-0.6778-0.2063-1.3358-0.334-1.984l-1.925,0.3731   C31.4275,58.9911,31.5355,59.6196,31.624,60.258z"></path><path d="M46.6216,84.3505c0.5794-0.275,1.1688-0.5402,1.7581-0.8054l-0.7955-1.7974c-0.5992,0.2652-1.2082,0.5402-1.8073,0.825   L46.6216,84.3505z"></path><path d="M68.8578,78.0548c0.6384-0.0688,1.2867-0.1277,1.9348-0.1669l-0.1472-1.9643c-0.6679,0.0491-1.326,0.108-1.984,0.1768   L68.8578,78.0548z"></path><path d="M61.2165,79.2924c0.6286-0.1375,1.2572-0.275,1.8956-0.3929l-0.3732-1.925c-0.6483,0.1179-1.3064,0.2554-1.9545,0.4027   L61.2165,79.2924z"></path><path d="M53.7816,81.4138c0.6089-0.2062,1.2179-0.4125,1.8366-0.6089l-0.5992-1.8661c-0.6285,0.1964-1.2571,0.4027-1.8857,0.6188   L53.7816,81.4138z"></path><path d="M59.3308,79.7442l-0.4813-1.9054c-0.6385,0.167-1.2867,0.3339-1.9251,0.5205l0.5402,1.8857   C58.0835,80.0683,58.7119,79.9013,59.3308,79.7442z"></path><path d="M65.0176,78.5557c0.6383-0.0982,1.2767-0.1964,1.9152-0.275l-0.2554-1.9545c-0.6581,0.0884-1.3162,0.1866-1.9742,0.2947   L65.0176,78.5557z"></path><path d="M49.4109,80.9719l0.7465,1.817c0.5992-0.2455,1.1982-0.4813,1.7974-0.7071l-0.6875-1.8367   C50.6484,80.471,50.0298,80.7165,49.4109,80.9719z"></path><path d="M72.7274,77.77c0.6385-0.0295,1.2867-0.0393,1.9348-0.0491l-0.0294-1.9643c-0.6679,0.0098-1.3357,0.0196-1.9938,0.0491   L72.7274,77.77z"></path><path d="M39.7759,88.0042c0.5598-0.3339,1.1197-0.658,1.6795-0.9822l-0.9625-1.709c-0.5303,0.3045-1.0705,0.6089-1.6009,0.9331   c-0.0393,0.0196-0.0786,0.0491-0.1179,0.0688l0.0392,0.0687L39.7759,88.0042z"></path><path d="M77.4812,76.3557c-0.1866-0.1866-0.3732-0.3831-0.5599-0.5893c-0.0982-0.0098-0.1964-0.0098-0.2947-0.0098v0.0491   l-0.0294,1.9152c0.6384,0.0098,1.2866,0.0294,1.9348,0.0589l0.0197-0.3536C78.2178,77.112,77.8641,76.7485,77.4812,76.3557z"></path><path d="M37.6347,88.23c-0.4026,0.5893-0.8053,1.1688-1.2277,1.7188l0.0786,0.1179c0.5499-0.3634,1.0902-0.7071,1.6401-1.0509   L37.6347,88.23z"></path><path d="M43.1546,86.0889c0.5793-0.3045,1.1491-0.5991,1.7188-0.8937l-0.8743-1.7483c-0.599,0.2947-1.1785,0.5992-1.7678,0.9134   L43.1546,86.0889z"></path><path d="M81.0758,41.6264l1.2572-1.5126c-0.5304-0.442-1.0607-0.8545-1.5911-1.2472l-1.1688,1.5812   C80.074,40.8113,80.5749,41.2139,81.0758,41.6264z"></path><path d="M82.5098,42.8835c0.049,0.0393,0.0884,0.0885,0.1375,0.1278c0.7759,0.0098,1.5321,0.0785,2.2786,0.2062l0.3634-0.3537   c-0.4812-0.5008-0.9625-0.9723-1.4437-1.4143L82.5098,42.8835z"></path><path d="M71.8436,34.1325c-0.6679-0.2259-1.3064-0.4321-1.9348-0.5992l-0.5206,1.8957c0.5794,0.1571,1.1884,0.3436,1.817,0.5597   L71.8436,34.1325z"></path><path d="M75.5758,35.704c-0.6189-0.3142-1.2375-0.5893-1.8368-0.8446l-0.7661,1.817c0.5697,0.2357,1.1492,0.5009,1.7384,0.7857   L75.5758,35.704z"></path><path d="M65.7836,33.7887l-0.1179,0.8644c0.6188,0.0884,1.2474,0.1964,1.8758,0.3241l0.393-1.9251   c-0.4027-0.0882-0.8153-0.1571-1.2179-0.216C66.3827,33.1798,66.0782,33.4941,65.7836,33.7887z"></path><path d="M76.3909,38.3559c0.5304,0.3142,1.0706,0.6383,1.6207,1.0018l1.0802-1.6502c-0.5793-0.3731-1.1589-0.7268-1.7286-1.0507   L76.3909,38.3559z"></path><path d="M33.1953,28.269c0.6287-0.0786,1.267-0.1572,1.9153-0.2062l-0.167-1.9643c-0.6776,0.0589-1.3456,0.1374-1.9938,0.216   L33.1953,28.269z"></path><path d="M30.9658,26.6189c-0.6678,0.108-1.3258,0.2357-1.9643,0.3732l0.4028,1.9152c0.6088-0.1276,1.2375-0.2455,1.8857-0.3534   L30.9658,26.6189z"></path><path d="M25.6622,29.8405c0.5991-0.167,1.2179-0.3437,1.8562-0.5009l-0.4714-1.9055c-0.6678,0.167-1.3062,0.3439-1.9348,0.5206   L25.6622,29.8405z"></path><path d="M40.8759,27.9153c0.6286,0.0197,1.267,0.059,1.9152,0.118l0.167-1.9643c-0.6778-0.0492-1.3456-0.0885-2.0035-0.118   L40.8759,27.9153z"></path><path d="M44.9518,26.285l-0.2455,1.9447c0.6287,0.0884,1.2572,0.1767,1.8957,0.2947l0.3338-1.9348   C46.268,26.4716,45.61,26.3734,44.9518,26.285z"></path><path d="M22.6666,28.7306c-0.3536,0.4616-0.6973,0.9035-1.0412,1.3259l0.3733,0.992c0.5696-0.2162,1.1785-0.4224,1.817-0.6384   l-0.6188-1.866C23.0203,28.6029,22.8434,28.6618,22.6666,28.7306z"></path><path d="M37.0356,27.935c0.6286-0.0393,1.267-0.0492,1.9153-0.0492l-0.0098-1.9643c-0.6778,0-1.3457,0.0197-2.0037,0.0492   L37.0356,27.935z"></path><path d="M52.7896,28.0235l-0.5991,1.866c0.5991,0.1965,1.208,0.4027,1.817,0.6287L54.253,29.86   C53.7619,29.2905,53.2708,28.6716,52.7896,28.0235z"></path><path d="M48.91,26.9725l-0.4223,1.925c0.6089,0.1376,1.2375,0.2849,1.8563,0.4519l0.5106-1.8956   C50.2065,27.277,49.5582,27.1199,48.91,26.9725z"></path><path d="M61.8059,64.5206c-0.6581-0.2062-1.3162-0.3829-1.9643-0.5402l-0.4519,1.9055c0.5991,0.1473,1.2179,0.3142,1.8268,0.5107   L61.8059,64.5206z"></path><path d="M56.9638,63.4599c-0.4519,0.5107-0.884,0.9723-1.2572,1.3751l-0.0392,0.4616c0.6088,0.0492,1.2375,0.1179,1.866,0.2259   l0.3144-1.9447C57.553,63.5286,57.2584,63.4893,56.9638,63.4599z"></path><path d="M73.6115,71.8672l-0.668,0.8743c0.5009,0.3731,1.0018,0.7758,1.5126,1.1982l0.4126-0.5009   C74.4462,72.9378,74.0239,72.4172,73.6115,71.8672z"></path><path d="M70.8614,68.8716l-1.0608,1.6501c0.5206,0.3338,1.051,0.6973,1.5912,1.0802l0.992-1.4044   c-0.1278-0.1866-0.2554-0.3831-0.3832-0.5697C71.6177,69.3627,71.2345,69.1172,70.8614,68.8716z"></path><path d="M63.0041,67.0252c0.5696,0.216,1.1589,0.4616,1.7679,0.7366l0.8052-1.7876c-0.6383-0.2946-1.2571-0.5499-1.866-0.7857   L63.0041,67.0252z"></path><path d="M67.3943,66.8484l-0.9035,1.7482c0.5401,0.2849,1.0999,0.5893,1.6696,0.9233l0.992-1.6991   C68.5532,67.4769,67.9641,67.1528,67.3943,66.8484z"></path><path d="M41.4849,41.4496l1.1885-1.5616c-0.5304-0.4126-1.0903-0.8152-1.6404-1.1787l-1.0901,1.6305   C40.4635,40.6835,40.9741,41.0568,41.4849,41.4496z"></path><path d="M31.8696,34.4959c-0.6484-0.1867-1.2965-0.3536-1.9546-0.5107l-0.4419,1.9153c0.6286,0.1472,1.2374,0.3044,1.8465,0.4813   L31.8696,34.4959z"></path><path d="M27.9506,33.5824c-0.6581-0.1177-1.3161-0.2259-1.9839-0.3142l-0.2652,1.9447c0.6383,0.0884,1.2669,0.1867,1.8955,0.3044   L27.9506,33.5824z"></path><path d="M18.0013,34.162l0.0098,0.6285c0.6483-0.0098,1.2867-0.0098,1.925,0l0.0393-1.9643   c-0.2455-0.0098-0.4813-0.0098-0.717-0.0098C18.8166,33.3074,18.3942,33.7593,18.0013,34.162z"></path><path d="M21.871,34.8593c0.6385,0.0393,1.2867,0.0786,1.9153,0.1375l0.1867-1.9546c-0.6581-0.0589-1.326-0.1079-2.0037-0.1472   L21.871,34.8593z"></path><path d="M35.6802,35.8415c-0.6186-0.2652-1.2474-0.5009-1.8857-0.7268l-0.6483,1.8465c0.5991,0.216,1.1884,0.4419,1.7777,0.6875   L35.6802,35.8415z"></path><path d="M38.332,39.338l0.9822-1.6991c-0.5793-0.334-1.1785-0.6582-1.7875-0.9626l-0.8741,1.7581   C37.2223,38.7191,37.7821,39.0138,38.332,39.338z"></path><path d="M76.1945,42.9622c-0.6383-0.2947-1.2572-0.5599-1.866-0.7956l-0.7073,1.8269c0.5598,0.2259,1.1393,0.4714,1.7483,0.7563   L76.1945,42.9622z"></path><path d="M72.4132,41.4987c-0.6679-0.2062-1.3357-0.3831-1.984-0.5304l-0.4126,1.925c0.5894,0.1278,1.208,0.2947,1.8171,0.4812   L72.4132,41.4987z"></path><path d="M66.3237,42.4612c0.5992,0,1.2179,0.0393,1.8466,0.1179l0.2357-1.9545c-0.6973-0.0785-1.3947-0.1277-2.0725-0.1277   L66.3237,42.4612z"></path><path d="M62.179,41.0273l0.5304,1.8955c0.5697-0.1571,1.1687-0.275,1.7778-0.3536l-0.2455-1.9545   C63.5345,40.7031,62.8371,40.8406,62.179,41.0273z"></path><rect x="87.9409" y="22.8784" width="1.9643" height="1.9643"></rect><rect x="80.0836" y="22.8784" width="1.9643" height="1.9643"></rect><rect x="84.0122" y="22.8784" width="1.9643" height="1.9643"></rect><rect x="4.3649" y="45.2245" width="1.9643" height="1.9643"></rect><rect x="12.2222" y="45.2245" width="1.9643" height="1.9643"></rect><rect x="8.2936" y="45.2245" width="1.9643" height="1.9643"></rect><rect x="65.9391" y="87.9549" width="1.9643" height="1.9643"></rect><rect x="62.0104" y="87.9549" width="1.9643" height="1.9643"></rect><rect x="69.8677" y="87.9549" width="1.9643" height="1.9643"></rect></g></svg>